<svg width="50" height="50" viewBox="0 0 50 50" fill="none" xmlns="http://www.w3.org/2000/svg">
        <g clip-path="url(#clip0_34_48)">
        <path d="M38.6918 21.6573H39.3139C42.0528 21.6573 44.7931 21.6573 47.532 21.6573C49.2663 21.6573 49.9959 22.3784 49.9959 24.0881C49.9959 30.104 50.0041 36.1213 49.9932 42.1372C49.9864 46.0374 47.4312 49.1377 43.636 49.8628C43.1377 49.9579 42.6218 49.9932 42.1141 49.9932C30.6793 50 19.2458 50.0014 7.81104 49.9973C3.29974 49.9959 0.017686 46.7911 0.00951826 42.2947C-0.00953973 28.9416 0.00271183 15.5857 0.00679569 2.23118C0.00679569 0.881338 0.895715 0.00271539 2.25019 0.00271539C13.6333 -5.97055e-07 25.0163 -5.96992e-07 36.3994 0.0013574C37.7484 0.0013574 38.6904 0.957385 38.6918 2.3181C38.6932 8.53771 38.6918 14.7573 38.6918 20.9783V21.6573ZM45.9978 25.8698H38.8987C38.8987 27.6053 38.8987 29.2974 38.8987 30.9908C38.8987 34.7158 38.8892 38.4421 38.9028 42.1671C38.911 44.4227 40.9012 46.1351 43.0574 45.7685C44.853 45.4629 46.0196 44.0493 46.0223 42.1318C46.0291 36.8655 46.025 31.5992 46.0237 26.3329C46.0237 26.1849 46.0087 26.0355 45.9992 25.8712L45.9978 25.8698ZM18.9259 22.0728V22.0769C21.1026 22.0769 23.2807 22.0769 25.4574 22.0769C26.3926 22.0769 27.3291 22.0932 28.263 22.0579C29.1587 22.0253 29.7972 21.4835 30.0354 20.6347C30.4043 19.3161 29.5453 18.06 28.1813 17.9255C28.0629 17.9133 27.9431 17.9147 27.8247 17.9147C21.9044 17.9147 15.9856 17.9147 10.0653 17.9119C9.48678 17.9119 8.95044 18.0192 8.49849 18.4049C7.81377 18.9875 7.56873 19.9462 7.88183 20.8099C8.16498 21.5894 8.8429 22.0633 9.79035 22.0674C12.8355 22.0796 15.8807 22.0715 18.9246 22.0715L18.9259 22.0728ZM18.9273 37.5037V37.501C15.9502 37.501 12.973 37.5065 9.99454 37.4969C9.32751 37.4942 8.74488 37.6708 8.30383 38.1773C7.73209 38.8346 7.57146 39.5828 7.93084 40.3963C8.30655 41.2437 8.98855 41.6606 9.90606 41.666C11.8459 41.6782 13.7857 41.6701 15.7242 41.6701C19.74 41.6701 23.7544 41.6673 27.7702 41.6728C28.3678 41.6728 28.9191 41.5628 29.382 41.1622C30.0626 40.5742 30.3022 39.6127 29.9823 38.7517C29.6951 37.9777 28.9994 37.5078 28.0629 37.5051C25.0177 37.4969 21.9725 37.5024 18.9259 37.5024L18.9273 37.5037ZM18.9491 12.499C21.9262 12.499 24.9047 12.4935 27.8818 12.5031C28.5883 12.5058 29.1927 12.298 29.6365 11.7399C30.1674 11.0717 30.2831 10.3289 29.9169 9.54942C29.5317 8.7319 28.8538 8.33537 27.9581 8.33265C25.746 8.32451 23.5339 8.32994 21.3218 8.32994C17.5619 8.32994 13.8007 8.33265 10.0408 8.32722C9.27851 8.32722 8.62918 8.55401 8.17314 9.1814C7.68308 9.85361 7.59596 10.5896 7.97576 11.3379C8.361 12.097 8.99808 12.4976 9.86386 12.499C12.8927 12.5017 15.9216 12.499 18.9504 12.5003L18.9491 12.499ZM18.9572 27.7126C16.8132 27.7126 14.6692 27.7112 12.5252 27.7126C11.5723 27.7126 10.618 27.6936 9.66783 27.7343C8.67954 27.7764 7.89 28.5559 7.76204 29.5405C7.63816 30.4911 8.24938 31.4756 9.17913 31.7581C9.4827 31.8504 9.81485 31.8776 10.1348 31.8776C16.0046 31.8844 21.8745 31.883 27.7457 31.8803C27.9662 31.8803 28.1881 31.864 28.4059 31.8287C29.3561 31.6725 30.0789 30.8455 30.1143 29.8881C30.1606 28.6292 29.2499 27.7207 27.8914 27.7167C24.9142 27.7058 21.9357 27.7126 18.9586 27.7126H18.9572Z" fill="black"/>
        </g>
        <defs>
        <clipPath id="clip0_34_48">
        <rect width="50" height="50" fill="white"/>
        </clipPath>
        </defs>
        </svg>
        