<svg width="47" height="50" viewBox="0 0 47 50" fill="none" xmlns="http://www.w3.org/2000/svg">
    <g clip-path="url(#clip0_34_50)">
    <path d="M-4.97492e-07 23.3166C-4.97492e-07 16.8355 -0.00149486 10.3545 0.00149387 3.8734C0.00298824 1.84554 1.14319 0.398996 3.00517 0.0567859C3.29657 0.00298873 3.59993 0.00298873 3.89731 0.00298873C16.45 0 29.0042 0 41.5568 0C43.9747 0 45.4586 1.48689 45.4586 3.92271C45.4616 16.568 45.4571 29.2119 45.4736 41.8572C45.4736 42.2756 45.6051 42.7374 45.8113 43.102C46.9097 45.0387 46.4882 47.5164 44.7742 48.9435C43.0422 50.3855 40.5212 50.3527 38.8162 48.8344C38.1751 48.2635 37.5729 47.6464 36.9871 47.0202C36.7061 46.7199 36.4132 46.6212 36.0097 46.6227C25.2682 46.6332 14.5267 46.6317 3.78523 46.6302C1.99797 46.6302 0.605218 45.6424 0.162885 44.0315C0.0418418 43.5892 0.0044826 43.111 0.00298824 42.6492C-0.00298923 36.204 -4.97492e-07 29.7603 -4.97492e-07 23.3166ZM32.7535 38.0451C26.1619 44.0674 16.1571 42.5327 11.148 36.3609C6.44819 30.5703 6.71867 22.0016 11.8653 16.6323C17.1972 11.0703 25.6553 10.3739 31.7852 15.0214C34.7799 17.2913 36.6688 20.304 37.3801 23.9846C38.2543 28.505 37.1933 32.6056 34.4317 36.2175C34.9398 36.733 35.4225 37.2232 35.9604 37.7686C36.1158 37.5893 36.2623 37.395 36.4341 37.2247C37.5609 36.1054 38.9686 36.0979 40.1088 37.2052C40.6303 37.7133 41.1399 38.2349 41.6555 38.7489C42.0829 39.1763 42.5102 39.6022 43.0079 40.0998V9.6297H2.41041V10.2648C2.41041 21.0437 2.41041 31.8225 2.41041 42.5999C2.41041 43.8791 2.77354 44.2467 4.03329 44.2467C13.8602 44.2467 23.6872 44.2467 33.5156 44.2467C33.692 44.2467 33.8683 44.2467 34.2105 44.2467C33.4081 43.492 32.7744 42.8285 32.7969 41.784C32.8193 40.7394 33.5276 40.1207 34.1836 39.4677C33.6755 38.9611 33.2153 38.5023 32.755 38.0421L32.7535 38.0451ZM14.2099 36.062C14.8869 34.2314 15.9359 32.755 17.502 31.6462C19.0039 33.0524 20.7313 33.7831 22.7517 33.7801C24.7691 33.7787 26.4906 33.0315 27.9955 31.6327C28.3974 31.9884 28.7875 32.3037 29.1431 32.6549C30.1115 33.6128 30.7765 34.7694 31.2382 36.0606C35.7662 32.1259 37.0678 24.2326 32.1438 18.5899C27.3753 13.125 18.8215 12.9039 13.7482 18.1461C8.50892 23.5602 9.38313 31.703 14.2114 36.0606L14.2099 36.062ZM34.0999 5.9685C35.0339 5.9685 35.9664 5.97448 36.9004 5.967C37.7447 5.95953 38.2931 5.46789 38.2767 4.75806C38.2603 4.06019 37.7238 3.59096 36.9108 3.58947C35.025 3.58349 33.1391 3.58349 31.2532 3.58947C30.4507 3.59246 29.9127 4.07813 29.9097 4.77599C29.9068 5.47685 30.4328 5.95654 31.2442 5.96551C32.1961 5.97597 33.148 5.9685 34.1014 5.9685H34.0999ZM6.00287 4.77002C5.99839 5.43352 6.48854 5.94608 7.14606 5.96252C7.8245 5.97896 8.36995 5.46041 8.37742 4.79243C8.38489 4.13491 7.82899 3.582 7.16848 3.58947C6.5244 3.59843 6.00735 4.11997 6.00287 4.77002ZM10.7564 5.96252C11.4319 5.9685 11.9714 5.43501 11.9654 4.76852C11.9594 4.13342 11.4259 3.59843 10.7878 3.58947C10.1228 3.57901 9.58487 4.11997 9.59084 4.79393C9.59682 5.45593 10.0959 5.95804 10.7564 5.96402V5.96252ZM14.3474 5.96252C15.0214 5.967 15.5608 5.43053 15.5519 4.76404C15.5444 4.12893 15.0079 3.59545 14.3713 3.58797C13.7048 3.5805 13.1713 4.12146 13.1773 4.79692C13.1848 5.45892 13.6869 5.95804 14.3459 5.96252H14.3474Z" fill="black"/>
    <path d="M22.7278 31.6955C20.3846 31.6118 18.4898 30.6659 17.0657 28.78C16.9207 28.5887 16.6442 28.4184 16.4096 28.387C15.2082 28.2301 14.2607 27.4321 13.9514 26.2485C13.6495 25.0964 14.0964 23.874 15.117 23.2195C15.4517 23.0058 15.5847 22.7607 15.6445 22.3871C16.1944 19.0068 18.9426 16.4589 22.3363 16.1631C25.2608 15.909 28.4034 18.0519 29.4719 21.0332C29.5093 21.1378 29.5436 21.2454 29.578 21.3515C29.8455 22.1913 30.3312 23.0252 30.8915 23.6872C31.6148 24.542 31.8076 25.5193 31.4041 26.5639C30.9946 27.6278 30.1877 28.2151 29.052 28.3855C28.8159 28.4213 28.5379 28.5857 28.3945 28.777C26.9733 30.6674 25.077 31.6103 22.7278 31.694V31.6955ZM23.9846 22.5575C23.4929 23.2359 23.0611 23.7978 22.668 24.3851C22.3258 24.8991 21.885 25.1263 21.2603 25.1158C19.7869 25.0904 18.312 25.0979 16.8385 25.1203C16.6532 25.1233 16.4335 25.2682 16.305 25.4147C16.2408 25.4864 16.2976 25.7898 16.3887 25.8466C16.5352 25.9377 16.7668 25.9676 16.9416 25.9287C17.7725 25.7434 18.158 25.9467 18.5959 26.6759C18.9172 27.2124 19.2803 27.7623 19.7451 28.1673C22.021 30.1518 25.4476 29.436 26.8597 26.7178C27.2528 25.9631 27.7026 25.7434 28.4303 25.8974C28.6395 25.9422 28.8876 25.9078 29.0878 25.8316C29.1596 25.8047 29.2074 25.4461 29.1461 25.4012C28.9563 25.2623 28.7128 25.1293 28.4856 25.1218C27.6099 25.0904 26.7327 25.1143 25.8555 25.1068C25.1562 25.1009 24.7811 24.8394 24.545 24.1908C24.3627 23.6887 24.1953 23.1806 23.9816 22.559L23.9846 22.5575Z" fill="black"/>
    </g>
    <defs>
    <clipPath id="clip0_34_50">
    <rect width="46.4195" height="50" fill="white"/>
    </clipPath>
    </defs>
    </svg>
    