<svg width="38" height="50" viewBox="0 0 38 50" fill="none" xmlns="http://www.w3.org/2000/svg">
    <g clip-path="url(#clip0_34_43)">
    <path d="M19.786 0C20.3583 0.118712 20.9385 0.20742 21.503 0.36005C26.0607 1.59022 29.1667 5.52077 29.2517 10.2823C29.3144 13.828 29.3157 17.3763 29.253 20.9233C29.1602 26.1102 25.5472 30.2442 20.4406 31.1222C14.9264 32.0692 9.38466 28.1217 8.51963 22.6205C8.42424 22.0113 8.35629 21.3917 8.35368 20.7772C8.338 17.3437 8.32755 13.9115 8.35107 10.478C8.38504 5.46337 11.7171 1.33714 16.5846 0.238729C16.9936 0.146107 17.4117 0.0782718 17.8259 0C18.4793 0 19.1326 0 19.786 0Z" fill="black"/>
    <path d="M16.6956 39.5742C15.3014 39.2128 13.9045 38.9806 12.6018 38.4928C5.80694 35.9463 1.68431 31.0974 0.284843 23.9916C0.0914519 23.008 0.0417975 21.9905 0.00128993 20.986C-0.0496712 19.7219 0.840189 18.7787 2.02144 18.7513C3.21315 18.7226 4.14352 19.6019 4.16965 20.8712C4.20362 22.4953 4.40616 24.0881 4.98503 25.6066C7.07052 31.0739 10.9971 34.4083 16.8145 35.2445C24.8076 36.3925 32.0075 30.9656 33.2737 22.9962C33.3913 22.2605 33.3782 21.5052 33.4383 20.7603C33.5324 19.5953 34.3948 18.763 35.5029 18.7513C36.5783 18.7396 37.5361 19.5432 37.5949 20.6103C37.6368 21.3695 37.5845 22.1405 37.4982 22.8984C36.6162 30.5756 31.2078 36.8712 23.7427 38.905C22.8188 39.1568 21.8688 39.3107 20.9084 39.5142V45.7916C21.0914 45.802 21.2625 45.8203 21.4337 45.8203C22.6254 45.8229 23.8184 45.8099 25.0101 45.8255C25.9967 45.8386 26.7428 46.3669 27.0447 47.2253C27.3295 48.0341 27.1218 48.9681 26.424 49.4691C26.049 49.7391 25.542 49.9674 25.0912 49.9726C20.8941 50.0104 16.6969 50.0026 12.4998 49.9896C11.4022 49.9857 10.5202 49.1286 10.4588 48.0745C10.3921 46.9448 11.1043 45.969 12.2267 45.879C13.4759 45.7785 14.7382 45.8333 15.9953 45.8216C16.2187 45.819 16.4421 45.8216 16.6943 45.8216V39.5729L16.6956 39.5742Z" fill="black"/>
    </g>
    <defs>
    <clipPath id="clip0_34_43">
    <rect width="37.6119" height="50" fill="white"/>
    </clipPath>
    </defs>
    </svg>
    